# xmcd
#
# Track frame offsets:
# 150
# 12772
# 25635
# 38422
# 52087
# 60979
# 72187
# 83632
# 97021
# 110220
# 122172
# 135406
#
# Disc length: 2003 seconds
#
# Revision: 1
# Processed by: cddbd v1.4PL0 Copyright (c) Steve Scherf et al.
# Submitted via: CedeCatalogueitor 2.5 http://usuarios.lycos.es/kakasboy
#
DISCID=9407d10c
DTITLE=Ray Charles - 24 Exitos Cd 2
DYEAR=1998
DGENRE=
TTITLE0=Yesterday
TTITLE1=Baby Won't You Please Come Home
TTITLE2=Snows In Fallin
TTITLE3=Someday
TTITLE4=In The Road Jack
TTITLE5=She's On The Ball
TTITLE6=How Long
TTITLE7=Eleanor Rigby
TTITLE8=Take These Chains From My Heart
TTITLE9=Together Again
TTITLE10=Crying Time
TTITLE11=Here We Go Again
EXTD=
EXTT0=
EXTT1=
EXTT2=
EXTT3=
EXTT4=
EXTT5=
EXTT6=
EXTT7=
EXTT8=
EXTT9=
EXTT10=
EXTT11=
PLAYORDER=
